<?xml version="1.0" encoding="UTF-8"?>
<svg version="1.1" xmlns="http://www.w3.org/2000/svg" width="1001" height="249">
<path d="M0 0 C1.19821884 -0.00953201 2.39643768 -0.01906403 3.63096619 -0.02888489 C5.55302635 -0.02751778 5.55302635 -0.02751778 7.51391602 -0.02612305 C8.85620759 -0.03001557 10.19849795 -0.03435138 11.54078674 -0.03910828 C14.34738161 -0.04654802 17.15385063 -0.04629552 19.96044922 -0.04101562 C23.54251323 -0.03522237 27.12405993 -0.05215882 30.70603848 -0.0753603 C33.47629262 -0.09014984 36.24642364 -0.09096232 39.01671028 -0.08785057 C40.97474065 -0.08860789 42.93275203 -0.10243632 44.89073181 -0.11653137 C52.94554966 -0.07476928 58.2761192 0.35231346 64.64282227 5.5871582 C68.21330277 9.97374853 69.30308662 14.24884915 69.14894104 19.90655518 C67.83731521 29.65508647 63.45399274 39.31249498 60.02172852 48.4777832 C59.34883034 50.28264191 59.34883034 50.28264191 58.66233826 52.1239624 C57.7212351 54.64590081 56.77712396 57.16668821 55.83105469 59.68676758 C54.62908709 62.88990508 53.43724796 66.09670917 52.2479105 69.30455399 C51.09568823 72.40640566 49.93306822 75.50433371 48.77172852 78.6027832 C48.3507338 79.74048157 47.92973907 80.87817993 47.49598694 82.050354 C40.73951799 99.948057 40.73951799 99.948057 32.83032227 105.2746582 C27.34094125 107.68557441 22.09525667 107.58094078 16.20922852 107.57543945 C15.1911058 107.57972458 14.17298309 107.5840097 13.12400818 107.58842468 C10.97655987 107.59415286 8.82909217 107.59467943 6.68164062 107.59033203 C3.40729489 107.58717217 0.13385332 107.61065043 -3.14038086 107.63598633 C-5.2321766 107.63825957 -7.32397476 107.6389627 -9.41577148 107.63793945 C-10.38888779 107.6471492 -11.36200409 107.65635895 -12.36460876 107.66584778 C-18.07727022 107.62721601 -22.13006964 107.03102373 -27.16967773 104.2746582 C-32.29616809 99.00961406 -33.38194017 94.43651489 -33.32141113 87.33251953 C-33.01921979 81.24250083 -32.0376937 75.23473007 -31.12280273 69.2121582 C-30.90789488 67.77071347 -30.69328052 66.32922495 -30.47894287 64.88769531 C-30.03002287 61.8814529 -29.57535866 58.87614636 -29.11694336 55.87133789 C-28.53435931 52.0474311 -27.96966533 48.22112272 -27.40971756 44.3938446 C-26.97206158 41.42059893 -26.52308885 38.44914099 -26.07100677 35.47805786 C-25.85829143 34.069034 -25.64937099 32.65943114 -25.44455719 31.24923706 C-22.36223813 10.12830933 -22.36223813 10.12830933 -14.14624023 3.4309082 C-9.60190559 0.77256224 -5.20344166 0.0228496 0 0 Z " fill="#2A404C" transform="translate(160.169677734375,16.725341796875)"/>
<path d="M0 0 C5.61 0 11.22 0 17 0 C19.94243159 5.62612176 22.29006185 11.21418014 24.34765625 17.21484375 C24.64562607 18.0700209 24.94359589 18.92519806 25.25059509 19.80628967 C26.19296273 22.51496535 27.12778546 25.22617519 28.0625 27.9375 C28.69287618 29.75212105 29.32373159 31.5665757 29.95507812 33.38085938 C32.68477145 41.23835087 35.38462371 49.10362204 38 57 C38.33733154 55.83654053 38.67466309 54.67308105 39.0222168 53.47436523 C40.29591895 49.08433256 41.57356351 44.69545488 42.85229492 40.30688477 C43.4011928 38.4211213 43.94907512 36.53506188 44.49584961 34.64868164 C47.77263685 23.34661895 51.19390218 12.13583721 55 1 C60.28 1 65.56 1 71 1 C71.41362793 2.36205566 71.82725586 3.72411133 72.25341797 5.12744141 C73.79199189 10.19311868 75.33162846 15.25847245 76.87158203 20.32373047 C77.53723558 22.51374683 78.20260304 24.70385016 78.86767578 26.89404297 C79.82508896 30.04678022 80.78353915 33.19920064 81.7421875 36.3515625 C82.03809784 37.32678864 82.33400818 38.30201477 82.6388855 39.30679321 C84.03444796 43.89242773 85.45455173 48.46205782 87 53 C87.33 53.99 87.66 54.98 88 56 C88.64231567 54.14036621 88.64231567 54.14036621 89.29760742 52.24316406 C90.90594052 47.58998437 92.51927572 42.93855143 94.1340332 38.28759766 C94.82873244 36.2844811 95.52212182 34.28090973 96.21411133 32.27685547 C99.86186999 21.71547479 103.52833798 11.24574987 108 1 C113.61 1 119.22 1 125 1 C123.65197245 7.71586817 121.73442723 13.96543838 119.3671875 20.38671875 C119.01165802 21.36502151 118.65612854 22.34332428 118.28982544 23.35127258 C117.15678987 26.46528783 116.01607533 29.57642301 114.875 32.6875 C114.13229644 34.72442128 113.39010507 36.7615294 112.6484375 38.79882812 C111.17542856 42.84306401 109.69809179 46.88568041 108.21777344 50.92724609 C106.69916746 55.07715578 105.19320217 59.23137714 103.69628906 63.38916016 C103.32835236 64.40895462 102.96041565 65.42874908 102.58132935 66.47944641 C101.87892857 68.42767657 101.17870596 70.37669375 100.48092651 72.32658386 C100.01301193 73.62249199 100.01301193 73.62249199 99.53564453 74.94458008 C99.26221222 75.70628006 98.98877991 76.46798004 98.70706177 77.25276184 C98 79 98 79 97 80 C91.39 80 85.78 80 80 80 C74.39 61.52 68.78 43.04 63 24 C62.67 25.32 62.34 26.64 62 28 C61.27762735 29.91661983 60.55450153 31.83296475 59.82501221 33.74688721 C58.35999742 37.7478505 57.14130474 41.82411077 55.8984375 45.8984375 C55.61650543 46.81460846 55.33457336 47.73077942 55.0440979 48.67471313 C54.15208037 51.57410264 53.26324719 54.4744534 52.375 57.375 C51.47935746 60.29688964 50.58298896 63.21854773 49.68447876 66.13955688 C49.12738362 67.95085239 48.57196976 69.76266604 48.0184021 71.57504272 C47.76789093 72.38994171 47.51737976 73.2048407 47.25927734 74.04443359 C46.92976578 75.12076553 46.92976578 75.12076553 46.59359741 76.21884155 C46 78 46 78 45 80 C39.39 80 33.78 80 28 80 C27.3294458 78.12932861 26.6588916 76.25865723 25.96801758 74.33129883 C23.73410508 68.10037835 21.49879999 61.86995881 19.26257801 55.63986683 C17.90888857 51.86834559 16.5557318 48.09663514 15.20385742 44.32446289 C13.89540652 40.67352152 12.58547153 37.02311559 11.27457237 33.3730526 C10.77857955 31.99123185 10.28309181 30.60922968 9.78815651 29.2270298 C6.94880498 21.29878954 4.03185849 13.41766466 0.89970398 5.59989929 C0 3 0 3 0 0 Z " fill="#354A55" transform="translate(569,94)"/>
<path d="M0 0 C2.14216488 -0.00966899 4.28335462 -0.04068671 6.42529297 -0.07226562 C7.80158939 -0.07880014 9.17789264 -0.08404885 10.55419922 -0.08789062 C11.79717773 -0.09723633 13.04015625 -0.10658203 14.32080078 -0.11621094 C20.93162132 0.53966009 25.61488108 3.05651618 29.91357422 8.24023438 C32.61454702 14.26548139 30.72866652 22.68406338 29.74169922 29.01757812 C29.55616486 30.23375572 29.55616486 30.23375572 29.36688232 31.47450256 C29.10442924 33.17840842 28.83869543 34.88181191 28.56982422 36.5847168 C28.1655276 39.16526628 27.78134252 41.74830448 27.39794922 44.33203125 C24.29999631 64.53766489 24.29999631 64.53766489 17.85107422 70.24023438 C11.89614902 74.29465153 5.69714953 73.49778633 -1.27392578 73.55273438 C-3.08473633 73.59624023 -3.08473633 73.59624023 -4.93212891 73.640625 C-17.98749947 73.73341878 -17.98749947 73.73341878 -23.08642578 69.24023438 C-27.25651904 63.95115232 -27.666586 58.44410405 -27.46142578 51.92773438 C-27.44563477 51.04126221 -27.42984375 50.15479004 -27.41357422 49.24145508 C-27.34039173 46.23865371 -27.22022101 43.24093834 -27.08642578 40.24023438 C-27.03711914 39.09167969 -26.9878125 37.943125 -26.93701172 36.75976562 C-26.76612695 33.1467733 -26.55903514 29.53788816 -26.33642578 25.92773438 C-26.27503418 24.78973389 -26.21364258 23.6517334 -26.15039062 22.47924805 C-25.58662818 14.61517044 -24.46019325 8.44942782 -18.52392578 2.80273438 C-12.86806721 -0.82281599 -6.47562713 0.01768894 0 0 Z " fill="#2C414E" transform="translate(85.08642578125,77.759765625)"/>
<path d="M0 0 C6.05034241 5.52318386 9.64290215 12.44342578 10.14677429 20.6295929 C10.20375566 24.0725061 10.19732699 27.50986183 10.16796875 30.953125 C10.16513885 32.20839493 10.16230896 33.46366486 10.15939331 34.75697327 C10.15012752 38.07292472 10.13219924 41.38859426 10.10998535 44.70446777 C10.0894222 48.0965737 10.08036934 51.48870891 10.0703125 54.88085938 C10.04830746 61.52092045 10.01380589 68.16081234 9.97265625 74.80078125 C4.69265625 74.80078125 -0.58734375 74.80078125 -6.02734375 74.80078125 C-6.02734375 70.18078125 -6.02734375 65.56078125 -6.02734375 60.80078125 C-9.47941495 61.95147165 -9.79309839 62.62135853 -11.71484375 65.55078125 C-16.02100783 71.51316228 -21.85165272 75.14485255 -29.02734375 76.80078125 C-39.44077184 78.39576876 -49.47430794 78.37736764 -58.375 72.15234375 C-63.29187338 68.13050406 -65.50637231 63.80878818 -66.3203125 57.546875 C-66.71950791 50.65266244 -64.97100835 45.45470856 -61.02734375 39.80078125 C-55.60963655 33.77790463 -47.22983713 32.1776875 -39.45947266 31.61474609 C-35.62183096 31.41598377 -31.78709331 31.25951898 -27.94506836 31.17871094 C-21.46820703 31.01516256 -15.16648472 30.76274436 -9.52734375 27.23828125 C-7.22780032 23.50152318 -7.28707457 20.0668686 -8.02734375 15.80078125 C-10.07884113 12.02602608 -12.65275377 9.84039867 -16.70703125 8.3046875 C-24.69567065 6.56978096 -32.85232898 6.81466193 -40.02734375 10.80078125 C-41.01734375 11.13078125 -42.00734375 11.46078125 -43.02734375 11.80078125 C-44.898793 14.82282522 -45.9605237 18.21368512 -47.15234375 21.55078125 C-47.77109375 23.28328125 -48.38984375 25.01578125 -49.02734375 26.80078125 C-54.63734375 26.80078125 -60.24734375 26.80078125 -66.02734375 26.80078125 C-64.77450889 16.02640149 -62.31490282 8.04293226 -53.77734375 0.92578125 C-38.65881253 -9.88409605 -15.30315396 -11.19268793 0 0 Z M-8.02734375 32.80078125 C-8.64609375 33.56390625 -9.26484375 34.32703125 -9.90234375 35.11328125 C-16.21335403 41.4602517 -26.51251356 41.03983765 -34.84375 41.49609375 C-39.66990072 41.95798302 -42.8706711 43.36299948 -46.90234375 46.05078125 C-48.72637375 48.88816125 -48.8552728 51.47407628 -49.02734375 54.80078125 C-48.06755958 58.31998986 -46.84891034 60.50748154 -44.02734375 62.80078125 C-37.00957369 64.96090567 -29.89621505 65.64008004 -23.02734375 62.80078125 C-16.00065073 59.01455346 -10.65898919 54.53147287 -7.5546875 46.98046875 C-6.43451354 42.35041639 -6.8177529 37.52821936 -7.02734375 32.80078125 C-7.35734375 32.80078125 -7.68734375 32.80078125 -8.02734375 32.80078125 Z M-7.02734375 52.80078125 C-6.02734375 55.80078125 -6.02734375 55.80078125 -6.02734375 55.80078125 Z M-8.02734375 56.80078125 C-7.02734375 59.80078125 -7.02734375 59.80078125 -7.02734375 59.80078125 Z " fill="#304450" transform="translate(407.02734375,99.19921875)"/>
<path d="M0 0 C6.137914 5.30030158 10.28502371 12.32293483 11.00907898 20.46516418 C11.09217767 23.97271344 11.08332018 27.46830319 11.0390625 30.9765625 C11.03481766 32.25261353 11.03057281 33.52866455 11.02619934 34.84338379 C11.01231309 38.21043144 10.9854337 41.57685126 10.9520874 44.94372559 C10.9212141 48.38951233 10.90765742 51.83536435 10.89257812 55.28125 C10.85959268 62.02363107 10.80785269 68.76563608 10.74609375 75.5078125 C5.46609375 75.5078125 0.18609375 75.5078125 -5.25390625 75.5078125 C-5.74890625 66.5978125 -5.74890625 66.5978125 -6.25390625 57.5078125 C-6.89328125 59.0134375 -7.53265625 60.5190625 -8.19140625 62.0703125 C-11.67009661 69.00803959 -16.98683633 73.30024976 -24.06640625 76.3828125 C-33.57449217 79.42011772 -44.70999087 79.65933003 -53.80078125 75.28125 C-59.70604796 71.6724759 -62.50866547 68.01635118 -65.00390625 61.5703125 C-65.79405408 55.0515929 -65.69552969 49.24385156 -62.25390625 43.5078125 C-56.38545991 36.89920176 -49.98134696 33.65900817 -41.25390625 32.5078125 C-36.69720414 32.24260762 -32.13462283 32.11757042 -27.57226562 31.99023438 C-17.46750078 31.96619229 -17.46750078 31.96619229 -8.53173828 28.07983398 C-6.28473846 25.31551762 -6.79074661 22.36731964 -6.91015625 18.94921875 C-7.41239441 15.38218635 -8.51620505 13.8243289 -11.25390625 11.5078125 C-17.68763339 7.45176713 -24.84973639 7.74687587 -32.25390625 8.5078125 C-38.15694 10.13528442 -41.87718251 13.39448799 -45.25390625 18.5078125 C-46.46199549 21.48419364 -47.36267147 24.41194431 -48.25390625 27.5078125 C-53.53390625 27.5078125 -58.81390625 27.5078125 -64.25390625 27.5078125 C-64.25390625 19.77932814 -63.71770534 16.85046448 -60.25390625 10.5078125 C-59.92648437 9.88777344 -59.5990625 9.26773438 -59.26171875 8.62890625 C-54.71574131 1.21265839 -46.61371459 -3.10254622 -38.44140625 -5.4296875 C-25.71488822 -8.08035943 -11.01072213 -7.64569894 0 0 Z M-7.25390625 33.5078125 C-7.87265625 34.2709375 -8.49140625 35.0340625 -9.12890625 35.8203125 C-14.03047258 40.7080716 -21.14298903 41.35319307 -27.76171875 41.95703125 C-28.94954956 42.06688354 -28.94954956 42.06688354 -30.16137695 42.17895508 C-31.73366961 42.31222727 -33.30800439 42.42367814 -34.88354492 42.51049805 C-40.56051131 42.96036149 -43.30291077 44.35467307 -47.25390625 48.5078125 C-48.28700052 52.12364245 -48.45907592 54.52755742 -47.69140625 58.1953125 C-45.35602296 61.95223344 -42.47903851 63.93061654 -38.17578125 65.046875 C-30.0273532 66.27198831 -22.9198329 64.60436766 -16.109375 59.99609375 C-11.49292506 56.29321495 -8.02953573 52.20462374 -6.25390625 46.5078125 C-6.01340693 43.15275724 -6.01340693 43.15275724 -6.12890625 39.6953125 C-6.14695312 38.53386719 -6.165 37.37242187 -6.18359375 36.17578125 C-6.20679688 35.29535156 -6.23 34.41492188 -6.25390625 33.5078125 C-6.58390625 33.5078125 -6.91390625 33.5078125 -7.25390625 33.5078125 Z " fill="#2F4450" transform="translate(759.25390625,98.4921875)"/>
<path d="M0 0 C10.83897414 11.00477106 12 21.70302885 12 37 C-8.46 37 -28.92 37 -50 37 C-47.98608937 47.96007199 -47.98608937 47.96007199 -41.5625 56.3125 C-35.37003731 60.39046324 -28.728498 61.59106225 -21.375 60.671875 C-14.61372349 59.06401046 -10.79451693 55.74713307 -7 50 C-6.01 48.02 -5.02 46.04 -4 44 C0.95 44 5.9 44 11 44 C10.49764163 53.04245074 7.40192801 60.11846632 0.75 66.375 C-10.47536102 75.65138348 -23.03238117 76.02593507 -37 75 C-46.69295951 73.1757015 -54.68912672 67.62992725 -60.375 59.625 C-67.64609389 47.80191935 -68.56815255 33.71489445 -65.875 20.3125 C-63.08356192 9.54923411 -57.42562651 1.69064328 -48.02734375 -4.24609375 C-32.65111552 -12.59144227 -13.71756173 -10.58211905 0 0 Z M-46.5 12.4375 C-49.2564275 17.14639697 -50 20.50979577 -50 26 C-35.15 26 -20.3 26 -5 26 C-6.19814589 17.61297876 -7.79751665 13.63772559 -14.0859375 8.296875 C-24.37359563 1.32646174 -37.96468652 4.11556936 -46.5 12.4375 Z " fill="#374B57" transform="translate(322,101)"/>
<path d="M0 0 C6.47733067 5.65526245 9.94761497 13.79045986 12 22 C12 26.95 12 31.9 12 37 C-8.46 37 -28.92 37 -50 37 C-47.51012452 48.98506953 -47.51012452 48.98506953 -40.25 57.25 C-32.92044142 61.19668539 -26.08703834 61.80104347 -18 60 C-11.79393238 57.50306795 -8.72932551 54.00451613 -6 48 C-5.67 46.68 -5.34 45.36 -5 44 C0.28 44 5.56 44 11 44 C10.72142201 52.63591772 7.96647594 58.63354329 2.140625 65.046875 C-8.43219545 74.94303494 -20.01848303 75.56626351 -33.77441406 75.12304688 C-43.13132381 74.6057276 -50.12723835 70.18116299 -57 64 C-65.74763831 54.11445752 -67.71145161 40.80612901 -67 28 C-65.87289021 16.72890207 -61.64853523 6.57559665 -53 -1 C-36.33861626 -12.36003437 -16.25683284 -11.91792078 0 0 Z M-45.375 12.375 C-47.76119325 15.41138215 -49.23280519 18.16402597 -50 22 C-49.5733407 24.12981926 -49.5733407 24.12981926 -49 26 C-48.3915625 25.98839844 -47.783125 25.97679688 -47.15625 25.96484375 C-31.9935767 25.80875741 -17.93087259 26.49892612 -4 33 C-4.27801331 24.65960073 -4.73179335 17.54193962 -10.64453125 11.25 C-16.92330198 5.55943655 -22.38206111 4.5303979 -30.7734375 4.69140625 C-37.11471848 5.2978968 -41.09946519 7.75086044 -45.375 12.375 Z " fill="#374B56" transform="translate(921,101)"/>
<path d="M0 0 C5.6936028 6.1816259 9.31840048 12.88826535 9.30102539 21.31518555 C9.30091209 23.14674446 9.30091209 23.14674446 9.30079651 25.01530457 C9.29563522 26.33412125 9.29047394 27.65293793 9.28515625 29.01171875 C9.2832908 30.37506559 9.2818675 31.73841311 9.28086853 33.10176086 C9.27705332 36.68728491 9.26723155 40.27276835 9.25616455 43.85827637 C9.24592901 47.5181422 9.24136632 51.1780146 9.23632812 54.83789062 C9.22560838 62.01694773 9.20801965 69.195963 9.1875 76.375 C3.9075 76.375 -1.3725 76.375 -6.8125 76.375 C-6.82708252 74.90748291 -6.84166504 73.43996582 -6.85668945 71.92797852 C-6.91490737 66.45410481 -6.99213888 60.98063238 -7.07495117 55.50708008 C-7.1080902 53.14353984 -7.13615602 50.77992255 -7.15893555 48.41625977 C-7.19268423 45.00764306 -7.24501129 41.59972537 -7.30078125 38.19140625 C-7.30717117 37.14416885 -7.3135611 36.09693146 -7.32014465 35.01795959 C-7.47206211 27.34035049 -8.22644289 20.49153036 -13.25 14.4375 C-19.39791939 9.48917464 -25.1142854 9.77027741 -32.8125 10.375 C-37.80708593 11.98040262 -41.14496798 14.86680997 -43.8125 19.375 C-46.66101495 26.38811433 -47.27514452 33.13369773 -47.32421875 40.6328125 C-47.34216995 41.66187714 -47.36012115 42.69094177 -47.37861633 43.75119019 C-47.43229837 47.00075319 -47.46647923 50.25017294 -47.5 53.5 C-47.53321027 55.71876976 -47.56770329 57.93752071 -47.60351562 60.15625 C-47.68800035 65.56239589 -47.7550111 70.96850239 -47.8125 76.375 C-53.4225 76.375 -59.0325 76.375 -64.8125 76.375 C-64.8125 49.975 -64.8125 23.575 -64.8125 -3.625 C-59.5325 -3.625 -54.2525 -3.625 -48.8125 -3.625 C-48.1525 1.655 -47.4925 6.935 -46.8125 12.375 C-46.1525 11.199375 -45.4925 10.02375 -44.8125 8.8125 C-40.81186435 2.45656054 -35.36194141 -2.90318371 -28.06640625 -5.1875 C-17.85329344 -7.16994131 -8.92255152 -5.15525199 0 0 Z " fill="#384C58" transform="translate(555.8125,97.625)"/>
<path d="M0 0 C5.61 0 11.22 0 17 0 C21.73394164 11.08935149 25.98333148 22.34962241 30.25 33.625 C31.34660553 36.51994241 32.4437775 39.41466656 33.54217529 42.30892944 C34.22106779 44.09807696 34.89888246 45.88763391 35.57550049 47.67764282 C35.87961853 48.47963104 36.18373657 49.28161926 36.49707031 50.10791016 C36.89747528 51.16614487 36.89747528 51.16614487 37.30596924 52.24575806 C37.99648805 54.06531339 37.99648805 54.06531339 39 56 C39.99 56 40.98 56 42 56 C42.3282653 55.09917191 42.3282653 55.09917191 42.66316223 54.18014526 C44.94637692 47.91670648 47.2345711 41.65510315 49.52563477 35.39453125 C50.37944712 33.05938444 51.23199872 30.72377624 52.08325195 28.38769531 C53.30867807 25.0254637 54.53866322 21.66493011 55.76953125 18.3046875 C56.14777542 17.26384003 56.52601959 16.22299255 56.91572571 15.15060425 C61.59816573 2.40183427 61.59816573 2.40183427 64 0 C66.69654854 -0.07319621 69.36691458 -0.09242537 72.0625 -0.0625 C72.82111328 -0.05798828 73.57972656 -0.05347656 74.36132812 -0.04882812 C76.24091871 -0.0370068 78.12046899 -0.01907078 80 0 C79.37017563 5.80891402 77.26263358 10.83527172 75.09765625 16.20703125 C74.70387283 17.19772614 74.31008942 18.18842102 73.90437317 19.20913696 C72.62946987 22.41257315 71.34617768 25.612571 70.0625 28.8125 C69.19042712 30.99793245 68.31884528 33.18356091 67.44775391 35.36938477 C65.74099208 39.64956147 64.03094585 43.92840086 62.31787109 48.20605469 C60.38575549 53.03197506 58.46445606 57.86205541 56.55078125 62.6953125 C55.65898573 64.94276054 54.76707419 67.19016256 53.875 69.4375 C53.48062744 70.43434814 53.08625488 71.43119629 52.67993164 72.45825195 C52.32922607 73.33698975 51.97852051 74.21572754 51.6171875 75.12109375 C51.32440918 75.8577124 51.03163086 76.59433105 50.72998047 77.35327148 C50 79 50 79 49 80 C47.65732587 80.08631874 46.31025678 80.10706473 44.96484375 80.09765625 C44.15595703 80.09443359 43.34707031 80.09121094 42.51367188 80.08789062 C41.66353516 80.07951172 40.81339844 80.07113281 39.9375 80.0625 C39.08349609 80.05798828 38.22949219 80.05347656 37.34960938 80.04882812 C35.23304337 80.03700373 33.11651315 80.01906769 31 80 C27.43856785 72.3574554 24.18115533 64.63399782 21.09375 56.7890625 C20.64656616 55.6590683 20.19938232 54.5290741 19.73864746 53.36483765 C18.3231507 49.78591855 16.91158471 46.20546359 15.5 42.625 C14.55362825 40.2316748 13.60701563 37.83844483 12.66015625 35.4453125 C7.9214737 23.45728099 7.9214737 23.45728099 6.2277832 19.13214111 C5.35212434 16.89828818 4.46970907 14.66707881 3.58276367 12.43768311 C3.12426025 11.27279358 2.66575684 10.10790405 2.19335938 8.90771484 C1.77356812 7.84853851 1.35377686 6.78936218 0.92126465 5.6980896 C0 3 0 3 0 0 Z M39 57 C39.33 58.32 39.66 59.64 40 61 C40.33 60.34 40.66 59.68 41 59 C40.34 58.34 39.68 57.68 39 57 Z " fill="#354A55" transform="translate(774,94)"/>
<path d="M0 0 C1.27166016 -0.020625 2.54332031 -0.04125 3.85351562 -0.0625 C5.08392578 -0.06765625 6.31433594 -0.0728125 7.58203125 -0.078125 C8.70456299 -0.0874707 9.82709473 -0.09681641 10.98364258 -0.10644531 C14.66994844 0.30367482 17.0377005 1.31401737 20.1875 3.25 C22.756519 7.10352851 22.85491399 9.8016816 22.1875 14.25 C20.91946626 18.65808061 19.38529472 22.94492515 17.76245117 27.23144531 C17.00390394 29.23966451 16.26916483 31.25543167 15.53710938 33.2734375 C9.31669385 50.16387077 9.31669385 50.16387077 3.1875 54.25 C-0.92224774 54.717106 -5.05407146 54.62034524 -9.1875 54.625 C-10.89292969 54.66173828 -10.89292969 54.66173828 -12.6328125 54.69921875 C-20.95872549 54.72853535 -20.95872549 54.72853535 -24.9765625 52.4765625 C-29.43220171 47.07291495 -28.90334133 43.37069754 -28.29296875 36.52734375 C-27.76275865 31.6103181 -27.12810118 26.70940817 -26.4375 21.8125 C-26.3238208 20.97267578 -26.2101416 20.13285156 -26.09301758 19.26757812 C-25.1582385 13.0149586 -24.0520073 7.37753194 -19.3125 2.875 C-13.43587998 -0.94480301 -6.77160957 0.02720888 0 0 Z " fill="#2F4450" transform="translate(143.8125,138.75)"/>
<path d="M0 0 C0 4.95 0 9.9 0 15 C-1.0621875 15.17015625 -2.124375 15.3403125 -3.21875 15.515625 C-15.72696954 17.44414686 -15.72696954 17.44414686 -26.25 24.125 C-31.7901822 33.2267279 -33.08996532 42.30109059 -33.31640625 52.77734375 C-33.33718735 53.58869278 -33.35796844 54.40004181 -33.37937927 55.23597717 C-33.44425643 57.80307339 -33.50346922 60.37026337 -33.5625 62.9375 C-33.60574418 64.68816036 -33.64936026 66.43881158 -33.69335938 68.18945312 C-33.8005667 72.45954117 -33.90009774 76.72970993 -34 81 C-39.61 81 -45.22 81 -51 81 C-51 54.6 -51 28.2 -51 1 C-45.72 1 -40.44 1 -35 1 C-33.41596476 2.58403524 -33.78025065 4.2771638 -33.68359375 6.47265625 C-33.64169922 7.37177734 -33.59980469 8.27089844 -33.55664062 9.19726562 C-33.51732422 10.14279297 -33.47800781 11.08832031 -33.4375 12.0625 C-33.39431641 13.01189453 -33.35113281 13.96128906 -33.30664062 14.93945312 C-33.20020724 17.29281353 -33.09818992 19.64628354 -33 22 C-32.74822998 21.40034424 -32.49645996 20.80068848 -32.23706055 20.18286133 C-28.89501621 12.41148794 -25.32402837 6.23942161 -17.375 2.5625 C-11.4135219 0.2804502 -6.33869154 -0.10743545 0 0 Z " fill="#263B48" transform="translate(483,93)"/>
<path d="M0 0 C0.33 0 0.66 0 1 0 C1 18.81 1 37.62 1 57 C-4.28 57 -9.56 57 -15 57 C-15 52.38 -15 47.76 -15 43 C-18.4520712 44.1506904 -18.76575464 44.82057728 -20.6875 47.75 C-24.99366408 53.71238103 -30.82430897 57.3440713 -38 59 C-48.41342809 60.59498751 -58.44696419 60.57658639 -67.34765625 54.3515625 C-72.26452963 50.32972281 -74.47902856 46.00800693 -75.29296875 39.74609375 C-75.69216416 32.85188119 -73.9436646 27.65392731 -70 22 C-64.5822928 15.97712338 -56.20249338 14.37690625 -48.43212891 13.81396484 C-44.59448721 13.61520252 -40.75974956 13.45873773 -36.91772461 13.37792969 C-28.92691592 13.17615235 -22.10469845 12.7231548 -16 7 C-14.95369639 10.13891082 -14.87085606 12.36293046 -14.8671875 15.65625 C-14.86525391 17.31333984 -14.86525391 17.31333984 -14.86328125 19.00390625 C-14.86714844 20.15761719 -14.87101562 21.31132812 -14.875 22.5 C-14.86919922 24.23056641 -14.86919922 24.23056641 -14.86328125 25.99609375 C-14.86457031 27.10082031 -14.86585938 28.20554688 -14.8671875 29.34375 C-14.86831543 30.35630859 -14.86944336 31.36886719 -14.87060547 32.41210938 C-15 35 -15 35 -16 38 C-15.34 38 -14.68 38 -14 38 C-14 43.94 -14 49.88 -14 56 C-9.38 56 -4.76 56 0 56 C0 37.52 0 19.04 0 0 Z M-17 15 C-17.61875 15.763125 -18.2375 16.52625 -18.875 17.3125 C-25.18601028 23.65947045 -35.48516981 23.2390564 -43.81640625 23.6953125 C-48.64255697 24.15720177 -51.84332735 25.56221823 -55.875 28.25 C-57.69903 31.08738 -57.82792905 33.67329503 -58 37 C-57.04021583 40.51920861 -55.82156659 42.70670029 -53 45 C-45.98222994 47.16012442 -38.8688713 47.83929879 -32 45 C-24.97330698 41.21377221 -19.63164544 36.73069162 -16.52734375 29.1796875 C-15.40716979 24.54963514 -15.79040915 19.72743811 -16 15 C-16.33 15 -16.66 15 -17 15 Z M-17 39 C-16 42 -16 42 -16 42 Z " fill="#364A56" transform="translate(416,117)"/>
<path d="M0 0 C0.33 0 0.66 0 1 0 C1 19.14 1 38.28 1 58 C-4.28 58 -9.56 58 -15 58 C-15.495 49.09 -15.495 49.09 -16 40 C-16.639375 41.505625 -17.27875 43.01125 -17.9375 44.5625 C-21.41619036 51.50022709 -26.73293008 55.79243726 -33.8125 58.875 C-43.32058592 61.91230522 -54.45608462 62.15151753 -63.546875 57.7734375 C-69.45214171 54.1646634 -72.25475922 50.50853868 -74.75 44.0625 C-75.54014783 37.5437804 -75.44162344 31.73603906 -72 26 C-66.13155366 19.39138926 -59.72744071 16.15119567 -51 15 C-46.44329789 14.73479512 -41.88071658 14.60975792 -37.31835938 14.48242188 C-25.80717784 14.2629895 -25.80717784 14.2629895 -16 9 C-14.34502644 12.30994713 -14.89915665 15.99123 -14.9375 19.625 C-14.94201172 20.42679688 -14.94652344 21.22859375 -14.95117188 22.0546875 C-14.96296832 24.03649006 -14.98090395 26.01825433 -15 28 C-15.33 28 -15.66 28 -16 28 C-16.33 24.7 -16.66 21.4 -17 18 C-17.598125 18.598125 -18.19625 19.19625 -18.8125 19.8125 C-26.41038136 25.02673231 -35.74590336 25.5050024 -44.7175293 26.09033203 C-49.6067925 26.49790365 -52.4927038 27.26883383 -56 31 C-56.98701011 34.61903706 -57.20601533 37.09353255 -56.375 40.75 C-54.55570145 43.72703398 -53.22467201 44.62779915 -50 46 C-42.12383465 47.85051652 -34.86094182 46.84142353 -27.8125 42.875 C-23.53362609 40.00533606 -20.80054278 36.26324665 -18 32 C-17.34 31.01 -16.68 30.02 -16 29 C-16 29.99 -16 30.98 -16 32 C-15.34 32 -14.68 32 -14 32 C-14 40.25 -14 48.5 -14 57 C-9.38 57 -4.76 57 0 57 C0 38.19 0 19.38 0 0 Z " fill="#334854" transform="translate(769,116)"/>
<path d="M0 0 C4.62 0 9.24 0 14 0 C14.13277344 1.54171875 14.26554687 3.0834375 14.40234375 4.671875 C14.58056167 6.69793141 14.75895631 8.72397228 14.9375 10.75 C15.02451172 11.76578125 15.11152344 12.7815625 15.20117188 13.828125 C15.28818359 14.8078125 15.37519531 15.7875 15.46484375 16.796875 C15.543396 17.69760742 15.62194824 18.59833984 15.70288086 19.52636719 C15.93260205 21.9672455 15.93260205 21.9672455 16.59594727 24.13769531 C17 26 17 26 16 29 C15.88551523 30.57961159 15.82377068 32.16333852 15.79467773 33.74682617 C15.77473251 34.70759567 15.75478729 35.66836517 15.73423767 36.6582489 C15.70916893 38.20993523 15.70916893 38.20993523 15.68359375 39.79296875 C15.66281265 40.85413406 15.64203156 41.91529938 15.62062073 43.00862122 C15.55518762 46.40151437 15.49626907 49.7944855 15.4375 53.1875 C15.39430886 55.48633622 15.35069438 57.78516453 15.30664062 60.08398438 C15.19951255 65.72257615 15.09822732 71.36124643 15 77 C10.05 77 5.1 77 0 77 C0 51.59 0 26.18 0 0 Z " fill="#263B48" transform="translate(492,96)"/>
<path d="M0 0 C0 4.95 0 9.9 0 15 C-1.0621875 15.17015625 -2.124375 15.3403125 -3.21875 15.515625 C-15.87502093 17.40876048 -15.87502093 17.40876048 -26.3125 24.375 C-28.10582494 27.16461658 -29.60190436 29.99409438 -31 33 C-32.32 32.34 -33.64 31.68 -35 31 C-35.33 21.76 -35.66 12.52 -36 3 C-40.29 3 -44.58 3 -49 3 C-49 28.41 -49 53.82 -49 80 C-44.38 80 -39.76 80 -35 80 C-35.00523682 78.91058105 -35.01047363 77.82116211 -35.01586914 76.69873047 C-35.03403023 72.63965686 -35.04547251 68.58058682 -35.05493164 64.52148438 C-35.05994651 62.76789749 -35.06676002 61.01431476 -35.07543945 59.26074219 C-35.08763 56.7337135 -35.09325688 54.20674032 -35.09765625 51.6796875 C-35.10281754 50.90132538 -35.10797882 50.12296326 -35.11329651 49.3210144 C-35.1137272 45.0996051 -34.8358664 41.15908612 -34 37 C-33.67 37 -33.34 37 -33 37 C-33.33 51.52 -33.66 66.04 -34 81 C-39.61 81 -45.22 81 -51 81 C-51 54.6 -51 28.2 -51 1 C-45.72 1 -40.44 1 -35 1 C-33.41596476 2.58403524 -33.78025065 4.2771638 -33.68359375 6.47265625 C-33.64169922 7.37177734 -33.59980469 8.27089844 -33.55664062 9.19726562 C-33.51732422 10.14279297 -33.47800781 11.08832031 -33.4375 12.0625 C-33.39431641 13.01189453 -33.35113281 13.96128906 -33.30664062 14.93945312 C-33.20020724 17.29281353 -33.09818992 19.64628354 -33 22 C-32.74822998 21.40034424 -32.49645996 20.80068848 -32.23706055 20.18286133 C-28.89501621 12.41148794 -25.32402837 6.23942161 -17.375 2.5625 C-11.4135219 0.2804502 -6.33869154 -0.10743545 0 0 Z " fill="#596B77" transform="translate(483,93)"/>
<path d="M0 0 C0.33 0 0.66 0 1 0 C1 18.81 1 37.62 1 57 C-4.28 57 -9.56 57 -15 57 C-15 52.38 -15 47.76 -15 43 C-18.45341972 44.15113991 -18.84642358 44.8931744 -20.8125 47.8125 C-23.50982056 51.57793246 -25.99770489 53.71297422 -30 56 C-30.66 55.67 -31.32 55.34 -32 55 C-31.67 54.01 -31.34 53.02 -31 52 C-30.34 52 -29.68 52 -29 52 C-27.75453595 49.50907189 -28.2232422 48.58919267 -29 46 C-29.6290625 46.144375 -30.258125 46.28875 -30.90625 46.4375 C-36.39609026 47.62806777 -41.38214213 48.39423564 -47 48 C-47.99 47.34 -48.98 46.68 -50 46 C-48.700625 46.04125 -47.40125 46.0825 -46.0625 46.125 C-37.03349247 46.06848039 -29.87980065 44.10498815 -23 38 C-21.02996695 35.46436135 -19.50229758 32.82962877 -18 30 C-17.34 29.01 -16.68 28.02 -16 27 C-14.875 34.625 -14.875 34.625 -16 38 C-15.34 38 -14.68 38 -14 38 C-14 43.94 -14 49.88 -14 56 C-9.38 56 -4.76 56 0 56 C0 37.52 0 19.04 0 0 Z M-17 39 C-16 42 -16 42 -16 42 Z " fill="#576973" transform="translate(416,117)"/>
<path d="M0 0 C0.33 0 0.66 0 1 0 C1 19.14 1 38.28 1 58 C-4.28 58 -9.56 58 -15 58 C-15.33 52.06 -15.66 46.12 -16 40 C-16.763125 41.588125 -17.52625 43.17625 -18.3125 44.8125 C-19.86041853 48.03384397 -21.18763298 50.73050275 -24 53 C-24.66 53 -25.32 53 -26 53 C-26 52.01 -26 51.02 -26 50 C-26.639375 49.87625 -27.27875 49.7525 -27.9375 49.625 C-28.618125 49.41875 -29.29875 49.2125 -30 49 C-30.33 48.34 -30.66 47.68 -31 47 C-33.02463255 46.34786708 -33.02463255 46.34786708 -35 46 C-34.34773437 45.72027344 -33.69546875 45.44054687 -33.0234375 45.15234375 C-25.80699674 41.84214747 -21.03243851 38.34202772 -17.625 31.0625 C-17.315625 30.0415625 -17.315625 30.0415625 -17 29 C-16.67 29.99 -16.34 30.98 -16 32 C-15.34 32 -14.68 32 -14 32 C-14 40.25 -14 48.5 -14 57 C-9.38 57 -4.76 57 0 57 C0 38.19 0 19.38 0 0 Z " fill="#4B5F69" transform="translate(769,116)"/>
<path d="M0 0 C5.28 0 10.56 0 16 0 C16.33 7.92 16.66 15.84 17 24 C18.32 24.33 19.64 24.66 21 25 C20.34 26.98 19.68 28.96 19 31 C17.68 30.34 16.36 29.68 15 29 C14.67 19.76 14.34 10.52 14 1 C9.71 1 5.42 1 1 1 C1 26.41 1 51.82 1 78 C0.67 78 0.34 78 0 78 C0 52.26 0 26.52 0 0 Z " fill="#435560" transform="translate(433,95)"/>
<path d="M0 0 C2.32441815 3.48662723 2.24401741 4.82577923 2.22705078 8.94018555 C2.22689972 10.16122482 2.22674866 11.3822641 2.22659302 12.64030457 C2.21627045 13.95912125 2.20594788 15.27793793 2.1953125 16.63671875 C2.19158161 18.00006401 2.188735 19.36341196 2.18673706 20.72676086 C2.17910653 24.31234154 2.15946315 27.89775979 2.1373291 31.48327637 C2.11685811 35.14312544 2.10773267 38.80300079 2.09765625 42.46289062 C2.07621658 49.64200965 2.04103931 56.82096136 2 64 C-3.28 64 -8.56 64 -14 64 C-14.02505615 62.52200928 -14.0501123 61.04401855 -14.07592773 59.52124023 C-14.17032025 54.02148227 -14.27046254 48.52184125 -14.37231445 43.0222168 C-14.41554308 40.64496604 -14.45722636 38.26768665 -14.49731445 35.89038086 C-14.55531024 32.4671975 -14.61891954 29.04415666 -14.68359375 25.62109375 C-14.70030624 24.56353378 -14.71701874 23.50597382 -14.73423767 22.41636658 C-14.83847811 17.18737043 -15.10737005 12.1556527 -16 7 C-15.01 7 -14.02 7 -13 7 C-13 25.48 -13 43.96 -13 63 C-8.38 63 -3.76 63 1 63 C0.67 42.21 0.34 21.42 0 0 Z " fill="#6A7B84" transform="translate(563,110)"/>
<path d="M0 0 C4.95 0 9.9 0 15 0 C15.66 4.95 16.32 9.9 17 15 C18.65 12.36 20.3 9.72 22 7 C22.33 8.32 22.66 9.64 23 11 C25.49034386 12.29660434 25.49034386 12.29660434 28 13 C27.2575 13.70125 26.515 14.4025 25.75 15.125 C23.06886775 17.9280019 21.0635577 20.72677055 19 24 C18.34 24.99 17.68 25.98 17 27 C12.75934379 19.25994049 13.90998933 9.55101374 14 1 C9.38 1 4.76 1 0 1 C0 0.67 0 0.34 0 0 Z " fill="#61727C" transform="translate(492,95)"/>
<path d="M0 0 C0.33 0 0.66 0 1 0 C1 18.81 1 37.62 1 57 C-4.28 57 -9.56 57 -15 57 C-15 52.38 -15 47.76 -15 43 C-15.66 42.67 -16.32 42.34 -17 42 C-17.625 38.9375 -17.625 38.9375 -18 36 C-18.99 36 -19.98 36 -21 36 C-19.02 31.545 -19.02 31.545 -17 27 C-14.73390016 31.53219967 -15.07264024 33.17772925 -16 38 C-15.34 38 -14.68 38 -14 38 C-14 43.94 -14 49.88 -14 56 C-9.38 56 -4.76 56 0 56 C0 37.52 0 19.04 0 0 Z " fill="#92A0A8" transform="translate(416,117)"/>
<path d="M0 0 C0.33 0 0.66 0 1 0 C1 19.14 1 38.28 1 58 C-4.28 58 -9.56 58 -15 58 C-15.04898438 56.74703125 -15.09796875 55.4940625 -15.1484375 54.203125 C-15.22348583 52.55206179 -15.29903277 50.90102119 -15.375 49.25 C-15.4059375 48.425 -15.436875 47.6 -15.46875 46.75 C-15.50742187 45.95078125 -15.54609375 45.1515625 -15.5859375 44.328125 C-15.6173584 43.5949707 -15.6487793 42.86181641 -15.68115234 42.10644531 C-16.03772523 39.75077082 -16.83662883 38.06549409 -18 36 C-18.99 36.495 -18.99 36.495 -20 37 C-18.87548273 34.0280615 -17.77706209 31.66559313 -16 29 C-16 29.99 -16 30.98 -16 32 C-15.34 32 -14.68 32 -14 32 C-14 40.25 -14 48.5 -14 57 C-9.38 57 -4.76 57 0 57 C0 38.19 0 19.38 0 0 Z " fill="#8D9EA5" transform="translate(769,116)"/>
<path d="M0 0 C0.66 0.33 1.32 0.66 2 1 C2 1.99 2 2.98 2 4 C1.34 4 0.68 4 0 4 C0 4.99 0 5.98 0 7 C-1.4540625 7.8971875 -1.4540625 7.8971875 -2.9375 8.8125 C-5.68804155 10.88349599 -5.99243758 11.95814511 -6.62109375 15.4375 C-6.85225044 18.96530675 -6.99043299 22.46498827 -7 26 C-9.57708176 21.35919938 -9.67255871 17.01803656 -8.53515625 11.9140625 C-6.82738649 6.63917603 -4.11547085 3.65819631 0 0 Z " fill="#5E7079" transform="translate(703,136)"/>
<path d="M0 0 C2.03120707 3.04681061 2.24659875 3.60118324 2.1953125 7.01171875 C2.18564453 8.14770508 2.18564453 8.14770508 2.17578125 9.30664062 C2.15902344 10.09232422 2.14226562 10.87800781 2.125 11.6875 C2.11597656 12.48478516 2.10695313 13.28207031 2.09765625 14.10351562 C2.07411585 16.069139 2.03824547 18.03460775 2 20 C1.67 20 1.34 20 1 20 C0.67 16.7 0.34 13.4 0 10 C-0.99 10.99 -1.98 11.98 -3 13 C-3.66 12.67 -4.32 12.34 -5 12 C-4.67 10.02 -4.34 8.04 -4 6 C-4.66 5.67 -5.32 5.34 -6 5 C-5.195625 4.54625 -4.39125 4.0925 -3.5625 3.625 C-0.91143428 2.25274335 -0.91143428 2.25274335 0 0 Z " fill="#788892" transform="translate(399,124)"/>
<path d="M0 0 C2 2 2 2 2.1953125 5.9140625 C2.18200376 7.48449351 2.15813602 9.05486221 2.125 10.625 C2.11597656 11.42679688 2.10695313 12.22859375 2.09765625 13.0546875 C2.07406223 15.03658523 2.03819065 17.01832981 2 19 C1.67 19 1.34 19 1 19 C0.67 15.7 0.34 12.4 0 9 C-0.99 9.66 -1.98 10.32 -3 11 C-3.99 8.69 -4.98 6.38 -6 4 C-5.195625 3.525625 -4.39125 3.05125 -3.5625 2.5625 C-1.15246512 1.23099846 -1.15246512 1.23099846 0 0 Z " fill="#75868F" transform="translate(752,125)"/>
<path d="M0 0 C5.61 0 11.22 0 17 0 C17.66 1.98 18.32 3.96 19 6 C18.34 5.67 17.68 5.34 17 5 C17 4.01 17 3.02 17 2 C10.565 2.495 10.565 2.495 4 3 C3.67 4.65 3.34 6.3 3 8 C1 6 1 6 0 0 Z " fill="#849096" transform="translate(774,94)"/>
<path d="M0 0 C0.33 0 0.66 0 1 0 C1.33 7.92 1.66 15.84 2 24 C3.32 24.33 4.64 24.66 6 25 C5.34 26.98 4.68 28.96 4 31 C2.68 30.34 1.36 29.68 0 29 C0 19.43 0 9.86 0 0 Z " fill="#94A5AE" transform="translate(448,95)"/>
<path d="M0 0 C0.33 0.99 0.66 1.98 1 3 C1.66 3 2.32 3 3 3 C3 9.93 3 16.86 3 24 C2.67 24 2.34 24 2 24 C1.95101562 23.10796875 1.90203125 22.2159375 1.8515625 21.296875 C1.77679687 20.12640625 1.70203125 18.9559375 1.625 17.75 C1.52058594 16.00976562 1.52058594 16.00976562 1.4140625 14.234375 C1.03751692 11.29305666 0.5225877 9.50050989 -1 7 C-1.99 7.495 -1.99 7.495 -3 8 C-2.690625 7.236875 -2.38125 6.47375 -2.0625 5.6875 C-1.32106407 3.81210323 -0.63771783 1.91315348 0 0 Z " fill="#768691" transform="translate(752,145)"/>
<path d="M0 0 C5.61 0 11.22 0 17 0 C17 0.99 17 1.98 17 3 C12.05 2.67 7.1 2.34 2 2 C1.67 2.99 1.34 3.98 1 5 C0.67 3.35 0.34 1.7 0 0 Z " fill="#8E979D" transform="translate(569,94)"/>
<path d="M0 0 C0 1.65 0 3.3 0 5 C-0.99 5 -1.98 5 -3 5 C-2.67 5.99 -2.34 6.98 -2 8 C-4.31 8.66 -6.62 9.32 -9 10 C-8.44149846 6.43179569 -7.27801323 5.00428942 -4.5 2.75 C-3.8709375 2.22921875 -3.241875 1.7084375 -2.59375 1.171875 C-1 0 -1 0 0 0 Z " fill="#3D4F5A" transform="translate(752,151)"/>
<path d="M0 0 C1.32 0.99 2.64 1.98 4 3 C2.84826645 5.46800047 1.95216435 7.04783565 0 9 C-1 7 -1 7 -1 5 C-4.0745356 5.7763932 -4.0745356 5.7763932 -6 8 C-6.33 7.01 -6.66 6.02 -7 5 C-2.25 1.125 -2.25 1.125 0 0 Z " fill="#253944" transform="translate(874,98)"/>
<path d="M0 0 C0.99 0.33 1.98 0.66 3 1 C0.79050976 4.7561334 -1.56481767 8.38650365 -4 12 C-4.66 12.99 -5.32 13.98 -6 15 C-5.61471495 8.83543922 -3.52913975 5.01372252 0 0 Z " fill="#5C6F77" transform="translate(348,106)"/>
<path d="M0 0 C-0.45375 0.433125 -0.9075 0.86625 -1.375 1.3125 C-3.20024334 3.10798342 -3.20024334 3.10798342 -5 6 C-5.99 5.67 -6.98 5.34 -8 5 C-8.99 5 -9.98 5 -11 5 C-11.66 4.67 -12.32 4.34 -13 4 C-11.59248779 3.13083113 -10.1735479 2.28014851 -8.75 1.4375 C-7.96109375 0.96183594 -7.1721875 0.48617187 -6.359375 -0.00390625 C-3.69155375 -1.13022151 -2.65498232 -1.0169313 0 0 Z " fill="#4F626C" transform="translate(883,95)"/>
<path d="M0 0 C-2 2 -2 2 -4 3 C-4 3.99 -4 4.98 -4 6 C-5.65 6 -7.3 6 -9 6 C-9.33 4.68 -9.66 3.36 -10 2 C-3.375 -1.125 -3.375 -1.125 0 0 Z " fill="#263A46" transform="translate(369,96)"/>
<path d="M0 0 C2.05279359 4.10558718 2.2216942 5.80206685 2.125 10.25 C2.10695313 11.32765625 2.08890625 12.4053125 2.0703125 13.515625 C2.04710937 14.33546875 2.02390625 15.1553125 2 16 C1.34 15.67 0.68 15.34 0 15 C-0.625 11.9375 -0.625 11.9375 -1 9 C-1.99 9 -2.98 9 -4 9 C-2.68 6.03 -1.36 3.06 0 0 Z " fill="#96A4AF" transform="translate(399,144)"/>
<path d="M0 0 C0.33 0 0.66 0 1 0 C1.05399736 1.45792884 1.09279177 2.91642712 1.125 4.375 C1.14820313 5.18710938 1.17140625 5.99921875 1.1953125 6.8359375 C1 9 1 9 -1 11 C-1.33 10.01 -1.66 9.02 -2 8 C-3.65 8 -5.3 8 -7 8 C-4.375 4.125 -4.375 4.125 -1 3 C-0.67 2.01 -0.34 1.02 0 0 Z " fill="#50616A" transform="translate(398,150)"/>
<path d="M0 0 C1.90389849 2.85584773 2.69462177 4.9311762 3.625 8.1875 C4.01558594 9.53908203 4.01558594 9.53908203 4.4140625 10.91796875 C4.60742188 11.60503906 4.80078125 12.29210937 5 13 C3.68 13 2.36 13 1 13 C-0.32229189 10.35541621 -0.09677194 8.32238699 -0.0625 5.375 C-0.05347656 4.37210938 -0.04445313 3.36921875 -0.03515625 2.3359375 C-0.02355469 1.56507812 -0.01195312 0.79421875 0 0 Z " fill="#5A6B77" transform="translate(802,124)"/>
<path d="M0 0 C3.29159316 -0.05790353 6.58305603 -0.09356261 9.875 -0.125 C10.81214844 -0.14175781 11.74929688 -0.15851563 12.71484375 -0.17578125 C13.61074219 -0.18222656 14.50664063 -0.18867187 15.4296875 -0.1953125 C16.25710449 -0.20578613 17.08452148 -0.21625977 17.93701172 -0.22705078 C20 0 20 0 22 2 C21.67 2.66 21.34 3.32 21 4 C20.13375 3.690625 19.2675 3.38125 18.375 3.0625 C12.42986735 1.32696438 6.14860618 1.32405969 0 1 C0 0.67 0 0.34 0 0 Z " fill="#758993" transform="translate(727,105)"/>
<path d="M0 0 C0.99 0 1.98 0 3 0 C3 7.92 3 15.84 3 24 C2.67 24 2.34 24 2 24 C1.93941406 22.85402344 1.87882813 21.70804688 1.81640625 20.52734375 C1.73193011 18.99738703 1.64728573 17.46743959 1.5625 15.9375 C1.52318359 15.18533203 1.48386719 14.43316406 1.44335938 13.65820312 C1.18419281 9.05301259 0.7200579 4.55633276 0 0 Z " fill="#647881" transform="translate(547,117)"/>
<path d="M0 0 C0.66 0.66 1.32 1.32 2 2 C1.71713004 5.96017943 -0.77750666 8.84549333 -3 12 C-3.88336837 9.5332355 -4.1312406 8.36140628 -3.22265625 5.859375 C-2.83980469 5.16328125 -2.45695313 4.4671875 -2.0625 3.75 C-1.68222656 3.04359375 -1.30195312 2.3371875 -0.91015625 1.609375 C-0.60980469 1.07828125 -0.30945313 0.5471875 0 0 Z " fill="#5A6D77" transform="translate(860,110)"/>
<path d="M0 0 C0.66 0.33 1.32 0.66 2 1 C1.54625 1.5775 1.0925 2.155 0.625 2.75 C-1.04812698 4.88277022 -1.04812698 4.88277022 -1.875 7.125 C-3.42534442 9.70890737 -5.19652514 10.11469215 -8 11 C-6.52670958 5.99081256 -3.72484762 3.48192278 0 0 Z " fill="#5C6E77" transform="translate(461,98)"/>
<path d="M0 0 C1.98 0.495 1.98 0.495 4 1 C4 1.66 4 2.32 4 3 C4.66 3.66 5.32 4.32 6 5 C4.35 5.33 2.7 5.66 1 6 C0.34 5.01 -0.32 4.02 -1 3 C-0.67 2.01 -0.34 1.02 0 0 Z M-1 6 C1 7 1 7 1 7 Z " fill="#263A46" transform="translate(515,102)"/>
<path d="M0 0 C1.4606285 2.64738916 2 3.89448334 2 7 C-1.3 6.01 -4.6 5.02 -8 4 C-4.77208445 1.8480563 -3.71599191 1.79913557 0 2 C0 1.34 0 0.68 0 0 Z " fill="#263A46" transform="translate(387,161)"/>
<path d="M0 0 C0.33 0 0.66 0 1 0 C0.58846263 4.97093824 0.20399168 9.44508386 -2 14 C-2.99 12.68 -3.98 11.36 -5 10 C-4.54625 9.649375 -4.0925 9.29875 -3.625 8.9375 C-1.35338666 6.22903794 -0.83201146 3.39204672 0 0 Z " fill="#63767E" transform="translate(109,130)"/>
<path d="M0 0 C1.65 0 3.3 0 5 0 C4.43628586 3.26954202 3.50037734 4.82575883 1 7 C0 2.25 0 2.25 0 0 Z " fill="#263A45" transform="translate(777,96)"/>
<path d="M0 0 C0.33 0.99 0.66 1.98 1 3 C0.67 3.66 0.34 4.32 0 5 C-2.97 5 -5.94 5 -9 5 C-9 4.67 -9 4.34 -9 4 C-7.35 4 -5.7 4 -4 4 C-3.67 3.01 -3.34 2.02 -3 1 C-2.01 0.67 -1.02 0.34 0 0 Z " fill="#273843" transform="translate(357,120)"/>
<path d="M0 0 C2.97 0 5.94 0 9 0 C10 4 10 4 10 7 C9.278125 6.38125 8.55625 5.7625 7.8125 5.125 C5.21618062 3.16333647 3.05328334 2.04684 0 1 C0 0.67 0 0.34 0 0 Z " fill="#707F8B" transform="translate(301,106)"/>
<path d="M0 0 C1.65 0.33 3.3 0.66 5 1 C0.375 5 0.375 5 -3 5 C-2.67 4.01 -2.34 3.02 -2 2 C-1.34 2 -0.68 2 0 2 C0 1.34 0 0.68 0 0 Z " fill="#596971" transform="translate(387,167)"/>
<path d="M0 0 C4.29 0 8.58 0 13 0 C13 0.33 13 0.66 13 1 C12.31292969 1.04898438 11.62585938 1.09796875 10.91796875 1.1484375 C9.56638672 1.26058594 9.56638672 1.26058594 8.1875 1.375 C7.29417969 1.44460937 6.40085937 1.51421875 5.48046875 1.5859375 C2.75601501 1.86645036 2.75601501 1.86645036 0 4 C0 2.68 0 1.36 0 0 Z " fill="#253843" transform="translate(677,96)"/>
<path d="M0 0 C3 1 3 1 5 4 C3.02 4 1.04 4 -1 4 C-1.33 3.01 -1.66 2.02 -2 1 C-1.34 0.67 -0.68 0.34 0 0 Z " fill="#364A55" transform="translate(66,145)"/>
<path d="M0 0 C-1.98 0.33 -3.96 0.66 -6 1 C-6.33 1.99 -6.66 2.98 -7 4 C-8.32 3.34 -9.64 2.68 -11 2 C-3.57142857 -1.57142857 -3.57142857 -1.57142857 0 0 Z " fill="#697C85" transform="translate(716,133)"/>
<path d="M0 0 C0.99 0.33 1.98 0.66 3 1 C1.69593116 3.01920337 0.36176581 5.01924973 -1 7 C-1.33 7 -1.66 7 -2 7 C-2.125 4.625 -2.125 4.625 -2 2 C-1.34 1.34 -0.68 0.68 0 0 Z " fill="#253A47" transform="translate(259,122)"/>
<path d="M0 0 C4.455 0.99 4.455 0.99 9 2 C6 4 6 4 3.8125 3.625 C3.214375 3.41875 2.61625 3.2125 2 3 C2 2.34 2 1.68 2 1 C1.34 0.67 0.68 0.34 0 0 Z " fill="#65767D" transform="translate(901,128)"/>
<path d="M0 0 C2.475 0.495 2.475 0.495 5 1 C5 2.32 5 3.64 5 5 C2.525 4.01 2.525 4.01 0 3 C0 2.01 0 1.02 0 0 Z " fill="#374954" transform="translate(388,163)"/>
<path d="M0 0 C1.32 0.99 2.64 1.98 4 3 C2.1875 4.0625 2.1875 4.0625 0 5 C-0.99 4.67 -1.98 4.34 -3 4 C-2.01 2.68 -1.02 1.36 0 0 Z " fill="#606E76" transform="translate(745,134)"/>
<path d="M0 0 C0.66 0.33 1.32 0.66 2 1 C1.01 2.485 1.01 2.485 0 4 C-0.33 4.66 -0.66 5.32 -1 6 C-3.0625 6.625 -3.0625 6.625 -5 7 C-3.70700306 4.11562221 -2.34058637 2.12780579 0 0 Z " fill="#70818A" transform="translate(868,100)"/>
<path d="M0 0 C0.66 0.99 1.32 1.98 2 3 C1.01 4.485 1.01 4.485 0 6 C-0.39387788 8.32387947 -0.73486085 10.65793749 -1 13 C-1.33 13 -1.66 13 -2 13 C-2.16682272 8.07872966 -2.24828052 4.49656104 0 0 Z " fill="#73838D" transform="translate(62,86)"/>
<path d="M0 0 C0.66 0.33 1.32 0.66 2 1 C0.38405168 3.04119788 -1.2856382 5.04072937 -3 7 C-3.66 7 -4.32 7 -5 7 C-3.70700306 4.11562221 -2.34058637 2.12780579 0 0 Z " fill="#6B7C85" transform="translate(146,20)"/>
<path d="M0 0 C2.64 0 5.28 0 8 0 C8 0.33 8 0.66 8 1 C5.36 1 2.72 1 0 1 C0 0.67 0 0.34 0 0 Z " fill="#FFFFFF" transform="translate(911,139)"/>
<path d="M0 0 C0.33 1.32 0.66 2.64 1 4 C0.34 4 -0.32 4 -1 4 C-0.67 2.68 -0.34 1.36 0 0 Z " fill="#E6F4FF" transform="translate(752,159)"/>
<path d="M0 0 C1.98 0 3.96 0 6 0 C6 0.33 6 0.66 6 1 C4.02 1 2.04 1 0 1 C0 0.67 0 0.34 0 0 Z " fill="#FFFFFF" transform="translate(920,143)"/>
<path d="M0 0 C1.98 0 3.96 0 6 0 C6 0.33 6 0.66 6 1 C4.02 1 2.04 1 0 1 C0 0.67 0 0.34 0 0 Z " fill="#FFFFFF" transform="translate(921,139)"/>
<path d="M0 0 C1.65 0 3.3 0 5 0 C5 0.33 5 0.66 5 1 C3.35 1 1.7 1 0 1 C0 0.67 0 0.34 0 0 Z " fill="#FFFFFF" transform="translate(701,127)"/>
<path d="" fill="#FFFFFF" transform="translate(0,0)"/>
<path d="" fill="#FFFFFF" transform="translate(0,0)"/>
<path d="" fill="#FFFFFF" transform="translate(0,0)"/>
<path d="" fill="#FFFFFF" transform="translate(0,0)"/>
<path d="" fill="#FFFFFF" transform="translate(0,0)"/>
<path d="" fill="#FFFFFF" transform="translate(0,0)"/>
<path d="" fill="#FFFFFF" transform="translate(0,0)"/>
<path d="" fill="#FFFFFF" transform="translate(0,0)"/>
<path d="" fill="#FFFFFF" transform="translate(0,0)"/>
<path d="" fill="#FFFFFF" transform="translate(0,0)"/>
<path d="" fill="#FFFFFF" transform="translate(0,0)"/>
<path d="" fill="#FFFFFF" transform="translate(0,0)"/>
</svg>
