<svg width="2000" height="1000" xmlns="http://www.w3.org/2000/svg"><path fill="#223801" d="M0 0h2000v1000H0z"/><path d="M0 500h0c66.829 7.158 133.658 14.315 209-2 75.342-16.315 159.198-56.103 243-84 83.802-27.897 167.549-43.903 242 13s139.607 186.714 209 168 143.022-185.952 218-220c74.978-34.048 151.303 65.095 221 143s132.764 134.572 211 100c78.236-34.572 171.64-160.385 253-155 81.36 5.385 150.674 141.967 181 170 30.326 28.033 21.663-52.484 53-133" fill="none" stroke="#8577ff" stroke-width="6" stroke-linecap="round"/></svg>