<svg width="2000" height="1000" xmlns="http://www.w3.org/2000/svg"><path fill="#ffffff" d="M0 0h2000v1000H0z"/><path d="M0 500h0c36.831-23.49 73.663-46.98 122-18 48.337 28.98 108.18 110.427 160 116 51.82 5.573 95.614-64.728 132-89 36.386-24.272 65.362-2.513 109 23 43.638 25.513 101.939 54.781 152 43 50.061-11.781 91.883-64.613 130-119 38.117-54.387 72.527-110.331 114-74s90.007 164.938 134 198c43.993 33.062 83.445-29.42 135-47 51.555-17.58 115.212 9.743 157-6s61.706-74.55 106-123 112.966-86.54 165-24c52.034 62.54 87.432 225.712 128 244 40.568 18.288 86.307-108.307 134-174s97.34-70.484 118-52c20.66 18.484 12.33 60.242 44 102" fill="none" stroke="#270eff" stroke-width="6" stroke-linecap="round"/></svg>